<svg width="119" height="120" viewBox="0 0 119 120" xmlns="http://www.w3.org/2000/svg"><title>AA5F8A08-702F-407F-8C6A-4BA17B2CB321</title><g fill="none" fill-rule="evenodd"><path d="M118.752 81.84c-.384-1.104-1.152-2.016-2.208-2.544L71.232 57.12c1.776-6.72-.096-13.92-5.04-18.864-1.728-1.728-3.696-3.12-5.856-4.08v-.48l-1.44-.048c0 .336-.048.672-.048.96l-.048.48.48.192c.048.048.096.048.192.096l-.672 7.92-.432.576c.48.336.864.672 1.152 1.008 3.984 4.032 3.936 10.512-.048 14.496l-.048.048c-2.448 2.4-5.76 3.408-9.168 2.784a9.615 9.615 0 0 1-3.888-1.632c-2.832-2.016-4.464-5.136-4.464-8.544 0-2.736 1.104-5.28 3.024-7.2l.048-.048a8.426 8.426 0 0 1 1.44-1.152l.24-.192.048-.336a87.64 87.64 0 0 0 .768-9.12l.048-1.008-.96.288c-3.024.912-5.856 2.592-8.16 4.848l-.096.096c-3.696 3.696-5.712 8.592-5.76 13.776-.048 5.232 1.968 10.224 5.664 13.92 3.696 3.744 8.64 5.808 13.872 5.856 1.392 0 2.784-.144 4.128-.432l13.2 23.904-6.048 3.312 4.512 8.208 6.048-3.36 2.64 4.8-5.904 3.264 4.512 8.208 6-3.312c1.296 1.68 3.648 2.16 5.568 1.104l.48-.288c2.112-1.152 2.88-3.84 1.728-6L64.608 67.2c.48-.384.912-.816 1.344-1.2l.096-.096c.192-.192.384-.384.576-.624L91.2 77.328l-3.024 6.192 8.4 4.128 3.072-6.192 4.896 2.4-2.976 6.048 8.4 4.128 3.024-6.144c.864.288 1.824.24 2.688-.048 1.104-.384 2.016-1.152 2.544-2.208l.24-.528c.576-.96.672-2.16.288-3.264z" fill="#66C079"/><path d="M49.968 3.744C46.464 1.488 42.672.336 38.976.336c-4.368 0-8.496 1.632-11.856 4.656-4.272 3.888-6.72 9.552-6.624 15.36a20.369 20.369 0 0 0-15.36 6.624c-5.76 6.336-6.24 15.072-1.248 22.848 4.176 6.528 13.008 10.128 25.584 10.464l1.152.048-.48-1.056c-.816-1.776-.912-5.664-.384-7.632l.24-.912h-1.296c-8.496-.384-14.352-2.448-16.896-5.952-4.464-6.144-.528-10.608.288-11.424C14.304 31.152 17.76 30 22.368 30c4.128 0 7.632.96 7.68.96l1.248.336-.096-.288.288.096-.336-1.248c-.048-.144-3.312-12.192 2.4-17.904.576-.576 2.592-2.352 5.664-2.352 1.92 0 3.84.72 5.76 2.112 5.136 3.744 6.096 13.248 6 20.832h-.048v.672c-.048 2.544-.24 5.232-.528 7.92l-.048.672c-.336 2.688-.768 5.424-1.248 7.728l-.144.816.768.048c.144 0 .672.096 1.392.096 2.208 0 7.392-.672 8.448-7.008.864-5.76.864-9.6.816-9.696.528-15.216-2.976-25.248-10.416-30.048z" fill="#F080AD"/></g></svg>